<svg width="24" height="24" viewBox="0 0 24 24" fill="none" xmlns="http://www.w3.org/2000/svg">
<path d="M13.1 21.9009H21.9001M15.3001 4.30049L19.7001 8.70059M22.0915 6.29374C22.3795 6.00584 22.6079 5.66403 22.7638 5.28784C22.9197 4.91165 22.9999 4.50844 23 4.10123C23.0001 3.69402 22.9199 3.29079 22.7641 2.91456C22.6083 2.53833 22.38 2.19647 22.0921 1.90849C21.8042 1.62051 21.4624 1.39207 21.0862 1.23619C20.71 1.08031 20.3068 1.00005 19.8996 1C19.4924 0.999949 19.0892 1.0801 18.7129 1.23589C18.3367 1.39167 17.9949 1.62004 17.7069 1.90794L3.02615 16.5922C2.77075 16.8468 2.58187 17.1604 2.47614 17.5052L1.02303 22.2925C0.994599 22.3876 0.992452 22.4887 1.01681 22.5849C1.04118 22.6812 1.09114 22.7691 1.16141 22.8392C1.23167 22.9094 1.31961 22.9592 1.41591 22.9834C1.5122 23.0076 1.61325 23.0053 1.70833 22.9767L6.49668 21.5247C6.84117 21.4199 7.15467 21.2322 7.40969 20.978L22.0915 6.29374Z" stroke="white" stroke-width="2" stroke-linecap="round" stroke-linejoin="round"/>
</svg>
