<svg width="318" height="40" viewBox="0 0 318 40" fill="none" xmlns="http://www.w3.org/2000/svg">
<g clip-path="url(#clip0_12_158)">
<path d="M25.037 28.3247V12.3706C25.037 11.9785 24.9371 11.5939 24.7522 11.25L20.903 4.20118C19.398 1.60133 16.6247 0 13.6259 0H0V11.6753H21.6499V28.3247H0V40H43.052V28.3247H25.037Z" fill="white"/>
<path d="M50.2071 25.7803H80.798C83.7968 25.784 86.5701 24.1827 88.0713 21.5865L91.9206 14.5377C92.1092 14.1938 92.2053 13.8092 92.2053 13.4172V12.378C92.2053 11.9859 92.1055 11.6013 91.9206 11.2574L88.0713 4.20858C86.5701 1.60503 83.7968 0 80.798 0H47.7519V11.6753H88.8035V14.216H58.2274C55.2286 14.216 52.4553 15.8136 50.9541 18.4098L47.1048 25.4586C46.9162 25.8025 46.8201 26.1871 46.8201 26.5791V39.9926H92.2127V28.3173H50.2108V25.7729L50.2071 25.7803Z" fill="white"/>
<path d="M141.392 12.3743C141.392 11.9822 141.292 11.5976 141.107 11.2537L137.258 4.20488C135.756 1.60503 132.983 0 129.981 0H106.793C103.794 0 101.021 1.60133 99.5193 4.20118L95.67 11.25C95.4814 11.5939 95.3853 11.9785 95.3853 12.3706V27.622C95.3853 28.0141 95.4851 28.3987 95.67 28.7426L99.5193 35.7914C101.021 38.3913 103.794 39.9926 106.793 39.9926H129.981C132.98 39.9926 135.753 38.3913 137.254 35.7914L141.103 28.7426C141.292 28.3987 141.388 28.0141 141.388 27.622V12.3706H141.392V12.3743ZM98.7723 28.3284V11.6753H138.005V28.3321H98.7723V28.3284Z" fill="white"/>
<path d="M166.588 23.5873C165.597 23.1435 164.413 22.9216 163.045 22.9216H156.419V38.2322H159.961V34.0089H163.045C164.417 34.0089 165.597 33.787 166.588 33.3432C167.579 32.8994 168.344 32.2596 168.884 31.4275C169.424 30.5954 169.694 29.6117 169.694 28.4726C169.694 27.3336 169.424 26.3277 168.884 25.4993C168.344 24.6672 167.579 24.0311 166.588 23.5836V23.5873ZM165.297 30.4216C164.757 30.8876 163.94 31.1206 162.849 31.1206H159.961V25.8062H162.849C163.944 25.8062 164.757 26.0392 165.297 26.5052C165.837 26.9712 166.107 27.6294 166.107 28.4726C166.107 29.3158 165.837 29.9519 165.297 30.4179V30.4216Z" fill="white"/>
<path d="M216.817 33.1768H216.229V26.4608H212.838V38.2322H216.987L221.11 31.52H221.698V38.2322H225.089V26.4608H220.962L216.817 33.1768Z" fill="white"/>
<path d="M232.195 33.1768H231.608V26.4608H228.22V38.2322H232.366L236.488 31.52H237.076V38.2322H240.467V26.4608H236.341L232.195 33.1768Z" fill="white"/>
<path d="M193.203 34.1198C192.882 35.0555 192.216 35.5104 191.162 35.5104C190.415 35.5104 189.842 35.2478 189.41 34.7115C188.97 34.1642 188.744 33.3691 188.744 32.3484C188.744 31.3277 188.966 30.5141 189.41 29.963C189.842 29.4268 190.415 29.1642 191.162 29.1642C191.68 29.1642 192.116 29.2899 192.464 29.5377C192.811 29.7892 193.055 30.1257 193.203 30.5732L193.263 30.7544H196.912L196.831 30.4253C196.502 29.0902 195.84 28.0362 194.864 27.2929C193.891 26.5496 192.652 26.176 191.181 26.176C190.038 26.176 189.007 26.4349 188.115 26.9453C187.221 27.4556 186.514 28.1879 186.011 29.1161C185.512 30.0407 185.257 31.128 185.257 32.3521C185.257 33.5762 185.512 34.6635 186.011 35.588C186.514 36.5163 187.224 37.2448 188.115 37.7589C189.007 38.2692 190.038 38.5281 191.181 38.5281C192.638 38.5281 193.876 38.1398 194.856 37.378C195.836 36.6161 196.498 35.5732 196.831 34.2825L196.916 33.9497H193.266L193.203 34.1309V34.1198Z" fill="white"/>
<path d="M206.659 34.1198C206.337 35.0555 205.672 35.5104 204.618 35.5104C203.871 35.5104 203.298 35.2478 202.865 34.7115C202.425 34.1642 202.2 33.3691 202.2 32.3484C202.2 31.3277 202.422 30.5141 202.865 29.963C203.298 29.4268 203.871 29.1642 204.618 29.1642C205.136 29.1642 205.572 29.2899 205.92 29.5377C206.267 29.7892 206.511 30.1257 206.659 30.5732L206.718 30.7544H210.368L210.287 30.4253C209.958 29.0902 209.296 28.0362 208.319 27.2929C207.347 26.5496 206.108 26.176 204.637 26.176C203.494 26.176 202.462 26.4349 201.571 26.9453C200.676 27.4556 199.97 28.1879 199.467 29.1161C198.968 30.0407 198.713 31.128 198.713 32.3521C198.713 33.5762 198.968 34.6635 199.467 35.588C199.97 36.5163 200.68 37.2448 201.571 37.7589C202.462 38.2692 203.494 38.5281 204.637 38.5281C206.093 38.5281 207.332 38.1398 208.312 37.378C209.292 36.6161 209.954 35.5732 210.287 34.2825L210.372 33.9497H206.722L206.659 34.1309V34.1198Z" fill="white"/>
<path d="M180.432 26.9416C179.5 26.4349 178.45 26.176 177.311 26.176C176.172 26.176 175.118 26.4349 174.19 26.9416C173.254 27.4519 172.508 28.1842 171.971 29.1161C171.435 30.0481 171.162 31.1354 171.162 32.3484C171.162 33.5614 171.428 34.645 171.949 35.5769C172.474 36.5126 173.206 37.2448 174.127 37.7552C175.044 38.2655 176.087 38.5207 177.229 38.5207C178.372 38.5207 179.444 38.2618 180.38 37.7552C181.319 37.2448 182.077 36.5126 182.628 35.5806C183.179 34.6487 183.46 33.5614 183.46 32.3484C183.46 31.1354 183.186 30.0481 182.65 29.1161C182.11 28.1842 181.363 27.4519 180.432 26.9416ZM179.574 34.0791C179.322 34.5414 178.99 34.8891 178.575 35.1183C178.158 35.3513 177.703 35.466 177.229 35.466C176.475 35.466 175.865 35.2071 175.37 34.6746C174.874 34.142 174.626 33.3617 174.626 32.3484C174.626 31.3351 174.881 30.5547 175.388 30.0222C175.898 29.4859 176.512 29.2271 177.27 29.2271C178.028 29.2271 178.649 29.4896 179.174 30.0259C179.692 30.5584 179.955 31.3388 179.955 32.3484C179.955 33.0288 179.825 33.6132 179.574 34.0791Z" fill="white"/>
<path d="M173.65 1.79734H168.056L165.386 7.60725H164.794L162.014 1.79734H156.419V17.108H159.743V5.89497H160.331L163.581 12.1598H166.488L169.631 5.89497H170.326L170.348 17.108H173.672L173.65 1.79734Z" fill="white"/>
<path d="M195.574 12.7108H200.691V17.108H204.104V5.34024H200.691V9.93343H195.574V5.34024H192.187V17.108H195.574V12.7108Z" fill="white"/>
<path d="M215.526 8.13979V17.108H218.936V5.34024H207.236V17.108H210.627V8.13979H215.526Z" fill="white"/>
<path d="M267.094 8.13979H271.076V17.108H274.467V8.13979H278.446V5.34024H267.094V8.13979Z" fill="white"/>
<path d="M318 5.34024H308.574V17.108H311.965V8.13979H318V5.34024Z" fill="white"/>
<path d="M185.076 10.3957H185.664V17.108H189.055V5.34024H184.928L180.783 12.0525H180.195V5.34024H176.804V17.108H180.953L185.076 10.3957Z" fill="white"/>
<path d="M260.727 5.34024L258.005 10.6879H257.413L254.962 5.34024H250.728V17.108H253.812V9.8003H254.4L256.249 13.6391H259.022L260.937 9.7929V9.8003H261.547V17.108H264.628L264.587 5.34024H260.727Z" fill="white"/>
<path d="M245.566 5.81731C244.634 5.31065 243.584 5.05177 242.445 5.05177C241.306 5.05177 240.253 5.31065 239.325 5.81731C238.389 6.32766 237.642 7.05991 237.106 7.99186C236.57 8.92381 236.296 10.0111 236.296 11.2241C236.296 12.4371 236.562 13.5207 237.084 14.4527C237.609 15.3883 238.341 16.1206 239.262 16.6309C240.179 17.1413 241.221 17.3964 242.364 17.3964C243.507 17.3964 244.579 17.1376 245.514 16.6309C246.454 16.1206 247.212 15.3883 247.763 14.4564C248.314 13.5244 248.595 12.4371 248.595 11.2241C248.595 10.0111 248.321 8.92381 247.785 7.99186C247.245 7.05991 246.498 6.32766 245.566 5.81731ZM244.708 12.9549C244.457 13.4172 244.124 13.7648 243.71 13.9941C243.292 14.2271 242.837 14.3417 242.364 14.3417C241.61 14.3417 241 14.0828 240.504 13.5503C240.009 13.0177 239.761 12.2374 239.761 11.2241C239.761 10.2108 240.016 9.43047 240.523 8.89793C241.033 8.36168 241.647 8.10281 242.405 8.10281C243.163 8.10281 243.784 8.36538 244.309 8.90162C244.827 9.43417 245.089 10.2145 245.089 11.2241C245.089 11.9046 244.96 12.4889 244.708 12.9549Z" fill="white"/>
<path d="M288.851 5.81731C287.919 5.31065 286.869 5.05177 285.73 5.05177C284.591 5.05177 283.538 5.31065 282.609 5.81731C281.674 6.32766 280.927 7.05991 280.391 7.99186C279.855 8.92381 279.581 10.0111 279.581 11.2241C279.581 12.4371 279.847 13.5207 280.369 14.4527C280.894 15.3883 281.626 16.1206 282.547 16.6309C283.464 17.1413 284.506 17.3964 285.649 17.3964C286.792 17.3964 287.864 17.1376 288.799 16.6309C289.739 16.1206 290.497 15.3883 291.048 14.4564C291.598 13.5244 291.88 12.4371 291.88 11.2241C291.88 10.0111 291.606 8.92381 291.07 7.99186C290.53 7.05991 289.783 6.32766 288.851 5.81731ZM287.993 12.9549C287.742 13.4172 287.409 13.7648 286.995 13.9941C286.577 14.2271 286.122 14.3417 285.649 14.3417C284.895 14.3417 284.284 14.0828 283.789 13.5503C283.294 13.0177 283.046 12.2374 283.046 11.2241C283.046 10.2108 283.301 9.43047 283.808 8.89793C284.318 8.36168 284.932 8.10281 285.69 8.10281C286.448 8.10281 287.069 8.36538 287.594 8.90162C288.112 9.43417 288.374 10.2145 288.374 11.2241C288.374 11.9046 288.245 12.4889 287.993 12.9549Z" fill="white"/>
<path d="M229.004 17.3964C230.028 17.3964 230.968 17.1339 231.8 16.6124C232.628 16.0947 233.294 15.3513 233.774 14.412C234.251 13.4763 234.495 12.3891 234.495 11.1834C234.495 9.97781 234.251 8.89423 233.774 7.97337C233.294 7.04512 232.628 6.32026 231.796 5.81361C230.964 5.30695 230.025 5.05177 229.004 5.05177C227.558 5.05177 226.623 5.8247 226.083 6.49038H225.491V5.34023H222.067V20.9985H225.491V15.8691H226.083C226.656 16.5533 227.64 17.4001 229.004 17.4001V17.3964ZM225.883 12.892C225.625 12.426 225.495 11.8639 225.495 11.2241C225.495 10.5843 225.625 10.0222 225.883 9.55621C226.142 9.09023 226.482 8.7352 226.9 8.49112C227.318 8.24704 227.769 8.125 228.243 8.125C228.716 8.125 229.189 8.24704 229.607 8.48373C230.021 8.72041 230.365 9.07174 230.62 9.52662C230.879 9.9889 231.008 10.5436 231.008 11.1834C231.008 11.8232 230.879 12.4038 230.62 12.8698C230.361 13.3358 230.021 13.6982 229.603 13.946C228.779 14.4379 227.747 14.449 226.9 13.9534C226.482 13.7093 226.142 13.3506 225.883 12.8883V12.892Z" fill="white"/>
<path d="M303.742 5.81361C302.91 5.30695 301.971 5.05177 300.95 5.05177C299.504 5.05177 298.569 5.8247 298.029 6.49038H297.437V5.34023H294.013V20.9985H297.437V15.8691H298.029C298.602 16.5533 299.586 17.4001 300.95 17.4001C301.974 17.4001 302.913 17.1376 303.745 16.6161C304.574 16.0984 305.239 15.355 305.72 14.4157C306.197 13.48 306.441 12.3927 306.441 11.1871C306.441 9.98151 306.197 8.89793 305.72 7.97707C305.239 7.04881 304.574 6.32396 303.742 5.81731V5.81361ZM302.566 12.8698C302.307 13.3358 301.967 13.6982 301.549 13.946C300.724 14.4379 299.693 14.449 298.846 13.9534C298.428 13.7093 298.088 13.3506 297.829 12.8883C297.57 12.4223 297.441 11.8602 297.441 11.2204C297.441 10.5806 297.57 10.0185 297.829 9.55251C298.088 9.08654 298.428 8.73151 298.846 8.48742C299.264 8.24334 299.715 8.1213 300.188 8.1213C300.662 8.1213 301.135 8.24334 301.553 8.48003C301.967 8.71671 302.311 9.06804 302.566 9.52293C302.825 9.9852 302.954 10.5399 302.954 11.1797C302.954 11.8195 302.825 12.4001 302.566 12.8661V12.8698Z" fill="white"/>
</g>
<defs>
<clipPath id="clip0_12_158">
<rect width="318" height="40" fill="white"/>
</clipPath>
</defs>
</svg>
